<svg width="101" height="85" viewBox="0 0 101 85" fill="none" xmlns="http://www.w3.org/2000/svg">
<g clip-path="url(#clip0_33_141)">
<g clip-path="url(#clip1_33_141)">
<path d="M81.6687 31.5565C81.6687 48.8108 67.627 62.7981 50.3056 62.7981C32.9843 62.7981 18.9426 48.8108 18.9426 31.5565C18.9426 14.3023 32.9843 0.314911 50.3056 0.314911C67.627 0.314911 81.6687 14.3023 81.6687 31.5565Z" fill="white"/>
<g clip-path="url(#clip2_33_141)">
<path d="M48.1315 12.6438C49.287 13.2424 54.7941 13.2424 55.9481 12.6438C56.697 12.2566 56.1365 9.58672 55.685 7.49011C57.422 9.62395 60.047 12.267 63.5584 14.2014C63.5584 14.2014 61.9933 10.1481 56.7882 6.20057C59.2413 7.49309 62.7587 8.92855 66.8352 9.32316C66.8352 9.32316 63.9307 6.35544 57.8675 4.76064C60.5762 5.01379 64.1639 4.99145 67.8681 3.92974C67.8681 3.92974 63.1294 1.83313 55.5729 3.35049C56.0318 1.20474 56.7613 -1.9089 55.9481 -2.33031C54.7941 -2.92892 49.287 -2.92892 48.1315 -2.33031C47.0163 -1.75255 48.8117 3.90294 48.8117 5.15674C48.8117 6.40904 47.0178 12.066 48.1315 12.6438Z" fill="#030104"/>
<path d="M48.1315 29.4896C49.287 30.0882 54.7941 30.0882 55.9481 29.4896C57.0633 28.9119 55.2695 23.2564 55.2695 22.0026C55.2695 20.7503 57.0633 15.0933 55.9481 14.5155C54.7941 13.9169 49.287 13.9169 48.1315 14.5155C47.0163 15.0933 48.8117 20.7488 48.8117 22.0026C48.8117 23.2564 47.0178 28.9119 48.1315 29.4896Z" fill="#030104"/>
<path d="M55.9496 48.2073C54.9869 47.3317 49.435 48.2505 48.133 48.2073C47.0223 48.173 49.7684 55.2491 48.7339 54.8351C47.7997 54.4599 48.0015 48.9607 46.9984 49.065C45.7024 49.202 40.436 50.8653 39.7424 51.9627C39.0727 53.0229 42.7545 57.4782 43.1686 58.6605C43.5827 59.8429 44.1253 65.5192 45.3346 65.8617C46.4946 66.1893 51.0495 63.8574 52.048 63.1814C52.5847 62.8165 55.558 63.6966 55.9496 63.1814C56.7135 62.1852 55.4952 56.9273 55.271 55.6958C55.0452 54.4643 56.8779 49.0546 55.9496 48.2073Z" fill="#030104"/>
<path d="M32.7494 34.5897C34.0454 34.7178 39.1563 32.6762 40.0054 31.692C40.8246 30.7419 37.0471 26.1571 36.5792 24.9941C36.1113 23.8312 35.6658 17.9151 34.4131 17.793C33.1171 17.6649 28.0062 19.7064 27.1571 20.6907C26.3379 21.6407 30.1154 26.2256 30.5833 27.3886C31.0512 28.5515 31.4982 34.4661 32.7494 34.5897Z" fill="#030104"/>
<path d="M42.8726 40.6294C42.4047 39.4664 41.9577 33.5533 40.7065 33.4282C39.4105 33.3002 34.2996 35.3417 33.4505 36.326C32.6313 37.276 36.4088 41.8623 36.8767 43.0238C36.8797 43.0327 36.8842 43.0491 36.8872 43.0566C30.4668 42.2152 26.5293 43.9604 26.5293 43.9604C30.2336 45.0221 33.8212 45.046 36.5299 44.7928C30.4668 46.3861 27.5622 49.3539 27.5622 49.3539C31.5909 48.9637 35.0784 47.5551 37.527 46.2759C37.8708 48.17 38.3237 50.1535 39.0428 50.2235C40.3388 50.3515 45.4497 48.31 46.2988 47.3257C47.118 46.3772 43.3405 41.7924 42.8726 40.6294Z" fill="#030104"/>
<path d="M66.9607 38.85C66.9607 38.85 62.9769 37.0854 56.4937 37.961C59.1441 37.1465 62.6525 35.6842 65.8127 33.0917C65.8127 33.0917 61.6525 33.0396 56.2336 36.1815C58.3264 34.4527 60.8497 31.9094 62.7153 28.55C62.7153 28.55 59.6494 29.7279 56.2515 33.4208C56.3711 32.3859 56.3397 31.5624 55.9496 31.3614C54.7956 30.7628 49.2885 30.7628 48.133 31.3614C47.0178 31.9407 48.8131 37.5947 48.8131 38.8485C48.8131 40.1008 47.0178 45.7578 48.133 46.3355C49.2885 46.9326 54.7956 46.9326 55.9496 46.3355C56.3397 46.133 56.3696 45.3095 56.2515 44.2746C59.6494 47.9675 62.7153 49.1454 62.7153 49.1454C60.6748 45.4704 57.851 42.7751 55.6581 41.0523C55.6581 41.0419 55.6551 41.0329 55.6521 41.024C58.1126 42.3552 61.7481 43.8919 65.9905 44.3C65.9905 44.3 62.9485 41.2101 56.6178 39.6436C59.3638 39.9355 63.101 39.9563 66.9607 38.85Z" fill="#030104"/>
</g>
</g>
<path d="M4.21531 69.56V86.38H5.75531V71.08H15.7353V86.3H17.3153V69.56H4.21531ZM5.23531 76.5V77.98H16.3953V76.5H5.23531ZM5.21531 83.58V85.08H16.4353V83.58H5.21531ZM21.9753 72.42V73.94H39.4353V72.42H21.9753ZM25.9753 81.34V82.86H35.2953V81.34H25.9753ZM29.8753 68.22V86.6H31.4553V68.22H29.8753ZM29.4153 72.92C27.8153 76.76 24.6353 80.48 21.2953 82.22C21.6353 82.52 22.1353 83.08 22.3753 83.46C25.8353 81.44 28.9753 77.62 30.7553 73.38L29.4153 72.92ZM31.9553 72.98L30.6153 73.44C32.3753 77.64 35.4553 81.46 38.9953 83.42C39.2353 83 39.7553 82.4 40.1353 82.08C36.6753 80.42 33.5353 76.78 31.9553 72.98ZM59.3153 71.5L58.3153 70.54C58.0353 70.62 57.3153 70.68 56.9353 70.68C55.7353 70.68 46.3953 70.68 45.4353 70.68C44.6953 70.68 43.8753 70.6 43.1753 70.5V72.3C43.9553 72.24 44.6953 72.2 45.4353 72.2C46.3953 72.2 55.4353 72.2 56.8353 72.2C56.1953 73.44 54.3153 75.6 52.4553 76.66L53.7953 77.72C56.0753 76.14 57.9753 73.56 58.7753 72.2C58.9153 71.98 59.1553 71.68 59.3153 71.5ZM51.3153 74.12H49.5153C49.5953 74.66 49.5953 75.1 49.5953 75.58C49.5953 78.92 49.1553 81.76 46.0753 83.66C45.5153 84.04 44.8153 84.38 44.2753 84.56L45.7353 85.76C50.8353 83.2 51.3153 79.54 51.3153 74.12ZM63.8647 71.98V73.78C64.4647 73.76 65.1447 73.74 65.8247 73.74C66.8047 73.74 73.4047 73.74 74.4047 73.74C75.0647 73.74 75.8247 73.76 76.3647 73.78V71.98C75.8247 72.04 75.1247 72.08 74.4047 72.08C73.3847 72.08 67.0847 72.08 65.8247 72.08C65.1647 72.08 64.5047 72.04 63.8647 71.98ZM62.1447 81.9V83.82C62.8047 83.76 63.5047 83.72 64.2447 83.72C65.3847 83.72 75.0647 83.72 76.2247 83.72C76.7447 83.72 77.4447 83.76 78.0447 83.82V81.9C77.4647 81.96 76.8047 82 76.2247 82C75.0647 82 65.3847 82 64.2447 82C63.5047 82 62.8247 81.94 62.1447 81.9ZM96.4847 70.44L94.6647 69.82C94.5647 70.24 94.3847 70.9 94.2447 71.3C93.5647 73.26 92.5647 75.48 90.9247 77.6C88.8647 80.22 86.3047 82.6 82.5847 84.38L83.9447 85.62C87.7247 83.66 90.3247 81.02 92.2447 78.58C93.8847 76.5 95.0847 73.9 95.8447 71.92C96.0047 71.5 96.2847 70.82 96.4847 70.44ZM85.9247 72.8L84.8647 74.06C87.0647 75.4 89.6647 77.38 91.1047 78.58C93.1047 80.26 94.8447 81.84 96.5047 83.76L97.7647 82.38C96.1847 80.66 94.2047 78.92 92.2047 77.28C90.6847 76.06 87.9047 74.06 85.9247 72.8Z" fill="white"/>
</g>
<defs>
<clipPath id="clip0_33_141">
<rect width="101" height="85" fill="white"/>
</clipPath>
<clipPath id="clip1_33_141">
<rect width="63" height="66" fill="white" transform="translate(19)"/>
</clipPath>
<clipPath id="clip2_33_141">
<rect width="68.9399" height="68.673" fill="white" transform="translate(12.7288 -2.78)"/>
</clipPath>
</defs>
</svg>
